<svg width="349" height="349" viewBox="0 0 349 349" fill="none" xmlns="http://www.w3.org/2000/svg">
<rect x="51" y="58" width="248" height="248" rx="36" fill="#C4C4C4"/>
<rect x="51" y="50" width="248" height="248" rx="36" fill="white"/>
<path d="M120.682 133H107.25V98.0909H120.545C124.136 98.0909 127.239 98.7898 129.852 100.188C132.477 101.574 134.5 103.574 135.92 106.188C137.352 108.79 138.068 111.909 138.068 115.545C138.068 119.182 137.358 122.307 135.938 124.92C134.517 127.523 132.506 129.523 129.903 130.92C127.301 132.307 124.227 133 120.682 133ZM116.727 124.955H120.341C122.068 124.955 123.54 124.676 124.756 124.119C125.983 123.562 126.915 122.602 127.551 121.239C128.199 119.875 128.523 117.977 128.523 115.545C128.523 113.114 128.193 111.216 127.534 109.852C126.886 108.489 125.932 107.528 124.67 106.972C123.42 106.415 121.886 106.136 120.068 106.136H116.727V124.955ZM142.589 133V106.818H151.999V133H142.589ZM147.294 104.091C146.021 104.091 144.93 103.67 144.021 102.83C143.112 101.989 142.658 100.977 142.658 99.7955C142.658 98.6136 143.112 97.6023 144.021 96.7614C144.93 95.9205 146.021 95.5 147.294 95.5C148.578 95.5 149.669 95.9205 150.567 96.7614C151.476 97.6023 151.93 98.6136 151.93 99.7955C151.93 100.977 151.476 101.989 150.567 102.83C149.669 103.67 148.578 104.091 147.294 104.091ZM137.455 156.091V191H129.545L116.932 172.659H116.727V191H107.25V156.091H115.295L127.705 174.364H127.977V156.091H137.455ZM154.688 191.477C151.847 191.477 149.415 190.915 147.392 189.79C145.369 188.653 143.818 187.074 142.739 185.051C141.659 183.017 141.119 180.659 141.119 177.977C141.119 175.295 141.659 172.943 142.739 170.92C143.818 168.886 145.369 167.307 147.392 166.182C149.415 165.045 151.847 164.477 154.688 164.477C157.528 164.477 159.96 165.045 161.983 166.182C164.006 167.307 165.557 168.886 166.636 170.92C167.716 172.943 168.256 175.295 168.256 177.977C168.256 180.659 167.716 183.017 166.636 185.051C165.557 187.074 164.006 188.653 161.983 189.79C159.96 190.915 157.528 191.477 154.688 191.477ZM154.756 184.523C155.551 184.523 156.239 184.256 156.818 183.722C157.398 183.187 157.847 182.426 158.165 181.438C158.483 180.449 158.642 179.273 158.642 177.909C158.642 176.534 158.483 175.358 158.165 174.381C157.847 173.392 157.398 172.631 156.818 172.097C156.239 171.562 155.551 171.295 154.756 171.295C153.915 171.295 153.193 171.562 152.591 172.097C151.989 172.631 151.528 173.392 151.21 174.381C150.892 175.358 150.733 176.534 150.733 177.909C150.733 179.273 150.892 180.449 151.21 181.438C151.528 182.426 151.989 183.187 152.591 183.722C153.193 184.256 153.915 184.523 154.756 184.523ZM126.068 225C125.977 223.864 125.551 222.977 124.79 222.341C124.04 221.705 122.898 221.386 121.364 221.386C120.386 221.386 119.585 221.506 118.96 221.744C118.347 221.972 117.892 222.284 117.597 222.682C117.301 223.08 117.148 223.534 117.136 224.045C117.114 224.466 117.188 224.847 117.358 225.188C117.54 225.517 117.824 225.818 118.21 226.091C118.597 226.352 119.091 226.591 119.693 226.807C120.295 227.023 121.011 227.216 121.841 227.386L124.705 228C126.636 228.409 128.29 228.949 129.665 229.619C131.04 230.29 132.165 231.08 133.04 231.989C133.915 232.886 134.557 233.898 134.966 235.023C135.386 236.148 135.602 237.375 135.614 238.705C135.602 241 135.028 242.943 133.892 244.534C132.756 246.125 131.131 247.335 129.017 248.165C126.915 248.994 124.386 249.409 121.432 249.409C118.398 249.409 115.75 248.96 113.489 248.062C111.239 247.165 109.489 245.784 108.239 243.92C107 242.045 106.375 239.648 106.364 236.727H115.364C115.42 237.795 115.688 238.693 116.165 239.42C116.642 240.148 117.313 240.699 118.176 241.074C119.051 241.449 120.091 241.636 121.295 241.636C122.307 241.636 123.153 241.511 123.835 241.261C124.517 241.011 125.034 240.665 125.386 240.222C125.739 239.778 125.92 239.273 125.932 238.705C125.92 238.17 125.744 237.705 125.403 237.307C125.074 236.898 124.528 236.534 123.767 236.216C123.006 235.886 121.977 235.58 120.682 235.295L117.205 234.545C114.114 233.875 111.676 232.756 109.892 231.188C108.119 229.608 107.239 227.455 107.25 224.727C107.239 222.511 107.83 220.574 109.023 218.915C110.227 217.244 111.892 215.943 114.017 215.011C116.153 214.08 118.602 213.614 121.364 213.614C124.182 213.614 126.619 214.085 128.676 215.028C130.733 215.972 132.318 217.301 133.432 219.017C134.557 220.722 135.125 222.716 135.136 225H126.068ZM151.969 249.477C149.128 249.477 146.696 248.915 144.673 247.79C142.651 246.653 141.099 245.074 140.02 243.051C138.94 241.017 138.401 238.659 138.401 235.977C138.401 233.295 138.94 230.943 140.02 228.92C141.099 226.886 142.651 225.307 144.673 224.182C146.696 223.045 149.128 222.477 151.969 222.477C154.537 222.477 156.759 222.943 158.634 223.875C160.52 224.795 161.98 226.102 163.014 227.795C164.048 229.477 164.571 231.455 164.582 233.727H155.855C155.73 232.352 155.332 231.307 154.662 230.591C154.003 229.864 153.151 229.5 152.105 229.5C151.287 229.5 150.571 229.739 149.957 230.216C149.344 230.682 148.866 231.392 148.526 232.347C148.185 233.29 148.014 234.477 148.014 235.909C148.014 237.341 148.185 238.534 148.526 239.489C148.866 240.432 149.344 241.142 149.957 241.619C150.571 242.085 151.287 242.318 152.105 242.318C152.798 242.318 153.412 242.159 153.946 241.841C154.48 241.511 154.912 241.034 155.241 240.409C155.582 239.773 155.787 239 155.855 238.091H164.582C164.548 240.398 164.02 242.409 162.997 244.125C161.974 245.83 160.526 247.148 158.651 248.08C156.787 249.011 154.56 249.477 151.969 249.477ZM181.078 249.477C178.237 249.477 175.805 248.915 173.783 247.79C171.76 246.653 170.209 245.074 169.129 243.051C168.05 241.017 167.51 238.659 167.51 235.977C167.51 233.295 168.05 230.943 169.129 228.92C170.209 226.886 171.76 225.307 173.783 224.182C175.805 223.045 178.237 222.477 181.078 222.477C183.919 222.477 186.351 223.045 188.374 224.182C190.396 225.307 191.947 226.886 193.027 228.92C194.107 230.943 194.646 233.295 194.646 235.977C194.646 238.659 194.107 241.017 193.027 243.051C191.947 245.074 190.396 246.653 188.374 247.79C186.351 248.915 183.919 249.477 181.078 249.477ZM181.146 242.523C181.942 242.523 182.629 242.256 183.209 241.722C183.788 241.187 184.237 240.426 184.555 239.438C184.874 238.449 185.033 237.273 185.033 235.909C185.033 234.534 184.874 233.358 184.555 232.381C184.237 231.392 183.788 230.631 183.209 230.097C182.629 229.562 181.942 229.295 181.146 229.295C180.305 229.295 179.584 229.562 178.982 230.097C178.379 230.631 177.919 231.392 177.601 232.381C177.283 233.358 177.124 234.534 177.124 235.909C177.124 237.273 177.283 238.449 177.601 239.438C177.919 240.426 178.379 241.187 178.982 241.722C179.584 242.256 180.305 242.523 181.146 242.523ZM198.464 249V222.818H207.601V227.795H207.874C208.351 225.955 209.107 224.608 210.141 223.756C211.186 222.903 212.408 222.477 213.805 222.477C214.214 222.477 214.618 222.511 215.016 222.58C215.425 222.636 215.817 222.722 216.192 222.835V230.864C215.726 230.705 215.152 230.585 214.47 230.506C213.788 230.426 213.203 230.386 212.714 230.386C211.794 230.386 210.964 230.597 210.226 231.017C209.499 231.426 208.925 232.006 208.504 232.756C208.084 233.494 207.874 234.364 207.874 235.364V249H198.464ZM230.322 249.477C227.527 249.477 225.118 248.943 223.095 247.875C221.084 246.795 219.533 245.25 218.442 243.239C217.362 241.216 216.822 238.795 216.822 235.977C216.822 233.273 217.368 230.909 218.459 228.886C219.55 226.864 221.089 225.29 223.078 224.165C225.067 223.04 227.413 222.477 230.118 222.477C232.095 222.477 233.885 222.784 235.487 223.398C237.089 224.011 238.459 224.903 239.595 226.074C240.732 227.233 241.607 228.642 242.22 230.301C242.834 231.96 243.141 233.83 243.141 235.909V238.091H219.754V232.909H234.482C234.47 232.159 234.277 231.5 233.902 230.932C233.538 230.352 233.044 229.903 232.419 229.585C231.805 229.256 231.107 229.091 230.322 229.091C229.561 229.091 228.862 229.256 228.226 229.585C227.589 229.903 227.078 230.347 226.692 230.915C226.317 231.483 226.118 232.148 226.095 232.909V238.5C226.095 239.341 226.271 240.091 226.624 240.75C226.976 241.409 227.482 241.926 228.141 242.301C228.8 242.676 229.595 242.864 230.527 242.864C231.175 242.864 231.766 242.773 232.3 242.591C232.845 242.409 233.311 242.148 233.697 241.807C234.084 241.455 234.368 241.034 234.55 240.545H243.141C242.845 242.364 242.146 243.943 241.044 245.284C239.942 246.614 238.482 247.648 236.663 248.386C234.857 249.114 232.743 249.477 230.322 249.477Z" fill="black"/>
</svg>
